<svg width="222" height="57" viewBox="0 0 222 57" fill="none" xmlns="http://www.w3.org/2000/svg">
<path d="M10.1719 14.8169L18.8203 10.8327L26.8359 8.60163L61.0078 4.93624H77.6719L119.859 3.18323H158.461L184.406 6.37052L198.539 9.39845L210.352 14.4981L215.414 18.0041L219 27.7254L216.891 34.2593L213.094 40.4746L202.758 49.0803L187.359 52.1082H171.328L150.445 53.0644H98.3438L67.3359 54.3393H34.4297L20.5078 52.905L17.1328 51.4707L12.0703 49.2396L7.85156 45.7336L5.10938 39.9965L3 31.2314V25.9724L5.10938 21.3508L10.1719 14.8169Z" stroke="#3a3a3a" stroke-width="2.5" stroke-linejoin="round"/>
<path d="M26.5386 37.9054L27.9442 21.582L29.5255 20.4659L33.2151 19.4893L44.6356 25.7675L49.7309 30.9296V34.278L35.4992 42.5095H29.5255L26.5386 37.9054Z" stroke="#3a3a3a" stroke-width="2.5" stroke-linejoin="round"/>
</svg>
